<svg width="682" height="651" viewBox="0 0 682 651" fill="none" xmlns="http://www.w3.org/2000/svg">
<path d="M488 105.2C472.667 108 456.134 114.666 442.4 123.866C430.8 131.466 412.134 147.6 407.867 153.466L405.067 157.466L410.134 163.066C412.934 166.133 420.534 174.533 427.2 181.733C433.867 189.066 439.6 195.466 439.734 196.133C440.667 198.4 443.334 197.333 448 193.066C475.067 168.4 493.067 160 514 162.133C528.4 163.733 540.534 172.266 544.667 183.866C547.067 190.8 547.334 201.866 545.067 208.133C541.6 218.266 528.8 232.8 509.2 248.666C499.067 256.933 478.4 274.4 456 293.866C449.067 299.867 439.2 308.4 434 312.667C428.934 316.933 422.934 322.133 420.667 324.267C418.534 326.267 416.267 328 415.734 328C415.067 328 414.667 338.533 414.667 351.333V374.667L514.4 374.4L614 374L614.4 346.4L614.667 318.667L564.4 318.4L514 318L521.334 312.133C541.6 296 562 276.933 583.2 254.133C590 246.8 599.334 231.466 602.934 221.866C606.934 210.933 607.334 180.4 603.467 169.333C591.6 134.8 563.2 111.066 526.134 104.666C511.467 102.133 504.134 102.266 488 105.2Z" fill="#E53935"/>
<path d="M158 108C145.467 110.534 133.2 116.534 124.533 124.4C113.867 134.267 108.667 141.867 104.667 154L101.333 163.867V241.2V318.667L104.533 328C110.933 346.134 123.2 360 140 367.867C153.067 374.134 158.8 374.8 196 374.4L230 374L230.4 243.334C230.534 171.467 230.4 111.334 230 109.6L229.334 106.667L196.267 106.8C178.134 106.934 160.933 107.467 158 108ZM208 129.6C208.134 130.534 208.267 181.334 208.4 242.4L208.667 353.334H184.4C163.2 353.334 159.2 352.934 153.333 350.667C140.267 345.467 132.4 338.134 126.133 325.334L122 316.667V242C122 171.334 122.133 166.934 124.533 160.4C130 145.867 140.667 135.467 155.333 130.8C161.867 128.667 167.2 128.134 185.734 128.134C202.667 128 208 128.4 208 129.6Z" fill="#E53935"/>
<path d="M156.267 165.467C147.6 169.867 143.333 177.067 143.333 187.333C143.333 197.733 148 205.6 156.4 209.467C174 217.333 192.133 205.867 192 186.8C191.733 168.533 172.667 157.067 156.267 165.467Z" fill="#E53935"/>
<path d="M258.267 107.6C257.733 108 257.333 168.4 257.333 241.6V374.667H283.067C319.067 374.667 330.267 371.467 346.8 356.133C357.734 346.133 364.8 333.2 367.467 318.933C370 304.133 370 178.4 367.467 164C364 145.066 354.934 130.933 339.067 119.333C325.6 109.6 312.533 106.666 282.667 106.666C269.733 106.666 258.667 107.066 258.267 107.6ZM318.133 228.666C330.4 232.266 336.534 240.933 336.667 254.666C336.667 265.333 333.2 271.866 324.133 277.466C307.467 288.133 285.2 276.933 283.067 256.8C281.867 244.666 289.733 232.266 301.2 228.8C309.2 226.266 310.267 226.266 318.133 228.666Z" fill="#E53935"/>
<path d="M565.334 430.8C548.934 437.6 548.267 460.533 564.134 468.667C579.067 476.4 598.267 461.067 593.467 445.2C592.534 442.267 589.867 437.733 587.6 435.2C584 431.2 582.267 430.4 576 430C572 429.6 567.2 430 565.334 430.8ZM581.2 440.8C584.667 443.6 585.334 445.2 585.334 450C585.334 463.467 567.867 467.333 562 455.2C559.334 449.6 560.534 444.933 565.6 440.667C570.667 436.4 576 436.4 581.2 440.8Z" fill="#E53935"/>
<path d="M124 450V469.333H128H132V456.4C132 441.733 130.8 441.467 144.4 459.2C150.267 466.933 152.933 469.333 155.467 469.333H158.667V450V430.667H155.333C152.133 430.667 152.133 430.8 151.733 443.6L151.333 456.4L144.4 447.2C131.733 430.4 132 430.667 127.867 430.667H124V450Z" fill="#E53935"/>
<path d="M189.333 450V469.333H194H198.667V450V430.667H194H189.333V450Z" fill="#E53935"/>
<path d="M229.067 441.6C228.8 447.733 228.8 456.4 229.067 460.933C229.467 468.8 229.6 469.333 232.667 469.333C236 469.333 236 469.2 236 456.533C236 448.667 236.533 444.133 237.333 444.667C238 445.067 242.533 450.8 247.467 457.333C255.067 467.6 256.8 469.333 260.133 469.333H264V450V430.667H260.667C257.333 430.667 257.333 430.8 257.333 442.4C257.333 448.933 256.933 454.533 256.533 455.067C256 455.467 251.467 450.133 246.267 443.333C238.4 432.8 236.133 430.667 233.067 430.667C229.6 430.667 229.467 430.667 229.067 441.6Z" fill="#E53935"/>
<path d="M293.333 434.667C293.333 438.533 293.6 438.667 299.333 438.667H305.333V454V469.333H309.333C313.333 469.333 313.333 469.333 313.467 460.933C313.6 456.4 313.733 449.6 313.867 446L314 439.333L320 438.667C325.333 438.133 326 437.6 326.4 434.267L326.8 430.667H310.133H293.333V434.667Z" fill="#E53935"/>
<path d="M356 450V469.333H371.333H386.667V466C386.667 462.667 386.533 462.667 375.333 462.667H364V458C364 453.467 364.133 453.333 369.733 453.2C384.933 452.8 384.667 452.8 385.067 449.6C385.467 446.8 385.2 446.667 374.8 446.667H364V442V437.333H375.333C386.533 437.333 386.667 437.333 386.667 434V430.667H371.333H356V450Z" fill="#E53935"/>
<path d="M420 450V469.333H424H428V456.533V443.733L434 451.067C437.333 455.2 440 459.067 440 459.867C440 460.667 440.533 461.333 441.067 461.333C441.6 461.333 443.2 463.067 444.4 465.333C446.267 468.4 447.733 469.333 450.8 469.333H454.667V450V430.667H451.333C448.133 430.667 448.133 430.8 447.733 443.6L447.333 456.533L437.467 443.6C429.067 432.533 427.067 430.667 423.867 430.667H420V450Z" fill="#E53935"/>
<path d="M489.333 450V469.333H500.4C508.933 469.333 512.267 468.8 515.733 466.667C528 459.2 528.667 441.867 516.8 434.133C512.133 431.067 510.133 430.667 500.4 430.667H489.333V450ZM513.867 442C518.4 446.133 518.667 453.733 514.4 458.267C512.133 460.667 510.133 461.333 504.4 461.333H497.333V450V438.667H503.867C508.8 438.667 511.067 439.333 513.867 442Z" fill="#E53935"/>
<path d="M458.667 491.333C449.733 495.6 442 503.6 437.6 513.067C430.133 529.333 437.2 551.067 453.067 561.067C465.467 568.933 480.533 569.733 492.8 563.2C499.2 559.867 506.667 553.2 506.667 550.933C506.667 549.733 497.867 541.333 496.667 541.333C496.267 541.333 493.333 543.467 489.867 546C484.4 550.133 482.933 550.667 475.467 550.667C464.933 550.667 457.733 546.4 453.467 537.733C450.133 530.8 450 526.133 452.667 519.467C459.333 503.6 480.667 499.2 492 511.333C493.733 513.2 495.6 514.667 496.133 514.667C497.867 514.667 506.667 506.267 506.667 504.533C506.667 502.267 498.4 495.2 491.6 491.733C487.733 489.867 482.8 488.667 476 488.4C467.333 487.867 465.067 488.267 458.667 491.333Z" fill="#E53935"/>
<path d="M140.267 491.733C136.4 492.933 131.2 495.6 128.667 497.733C119.6 504.933 119.333 518.667 128.133 525.2C132.667 528.667 145.6 532.667 158.533 534.8C169.867 536.533 174.667 539.2 174.667 543.333C174.667 548.267 170.533 551.6 162.267 553.333C154 554.933 148.8 554.4 136.133 550.533C126.933 547.6 127.333 547.467 123.2 555.2C120.8 559.6 121.2 560.133 130 563.467C135.333 565.467 140.267 566 154 566C170 566 171.733 565.733 177.333 562.667C185.6 558 189.333 552 189.333 543.467C189.2 536.133 186.667 531.867 179.867 527.467C175.867 524.933 161.2 520.667 151.867 519.333C144.133 518.133 137.333 514.267 137.333 510.933C137.333 509.467 138.533 507.333 140.133 505.867C142.533 503.733 144.933 503.333 155.2 503.467C162.667 503.467 169.467 504.4 172.8 505.6L178.267 507.733L181.067 501.2L183.733 494.667L180.267 493.867C178.267 493.333 173.333 492.133 169.333 491.2C159.867 488.8 148.933 488.933 140.267 491.733Z" fill="#E53935"/>
<path d="M200 493.6C200.133 495.333 201.067 499.067 202.133 502C203.2 504.933 204.533 509.733 205.2 512.667C206.133 517.333 211.733 537.2 218.133 558.4L220.133 565.467L228.933 565.067L237.733 564.667L239.333 559.333C240.933 554.267 243.6 544.8 248.667 526.933C250 522.4 251.6 518.667 252.267 518.667C252.8 518.667 253.333 518.933 253.333 519.2C253.333 519.6 256 529.2 259.333 540.8C262.667 552.267 265.333 562.533 265.333 563.467C265.333 564.933 267.6 565.333 274.667 565.333C279.867 565.333 284 565.067 284 564.8C284 564.4 288.533 548.533 294 529.333C299.467 510.133 304 493.6 304 492.533C304 491.2 302.133 490.667 296.8 490.667H289.467L287.333 498.267C284.667 507.467 280.533 523.067 277.867 533.867C274.533 547.467 275.333 548.533 266.133 516.667C264.267 510 261.733 501.467 260.667 497.6L258.533 490.667H252H245.467L243.333 498.267C242.133 502.533 240.667 507.2 240.133 508.667C239.467 510.133 237.067 518.4 234.667 526.933C232.267 535.6 229.733 542.667 229.2 542.667C228.667 542.667 227.333 538.667 226.133 533.6C224.933 528.667 222.4 518.933 220.533 512C218.667 505.067 216.667 497.467 216.133 495.333C215.333 491.467 214.933 491.333 207.6 490.933C200.4 490.533 200 490.667 200 493.6Z" fill="#E53935"/>
<path d="M324.667 492.267C324.267 493.2 324.133 509.867 324.4 529.333L324.667 564.667L332.4 565.067L340 565.467V528V490.667H332.667C328 490.667 325.067 491.333 324.667 492.267Z" fill="#E53935"/>
<path d="M360 498V505.2L371.067 505.6L382 506L382.4 535.6L382.667 565.333H390.667H398.667L398.933 535.6L399.333 506L411.067 505.6L422.667 505.2V498V490.667H391.333H360V498Z" fill="#E53935"/>
<path d="M525.333 528V565.333H532.667H539.867L540.267 550.267L540.667 535.333H558H575.333L575.733 550.267L576.133 565.333H583.333H590.667V528V490.667H583.333H576V505.333V520.133L558.4 519.733L540.667 519.333L540.267 504.933L539.867 490.667H532.667H525.333V528Z" fill="#E53935"/>
<path d="M600.933 555.733C601.733 556.267 602.667 558.8 603.067 561.333L603.6 566L603.733 561.067C603.867 558.4 604.8 555.867 605.733 555.6C606.533 555.2 605.6 554.8 603.333 554.8C601.067 554.8 600 555.2 600.933 555.733Z" fill="#E53935"/>
<path d="M610.8 560.267C610.934 565.333 611.067 565.6 611.867 562.133L612.667 558.133L614.534 562.133L616.4 566L617.734 562L619.2 558L620.134 562C620.934 565.6 621.067 565.467 621.2 560.267C621.334 553.867 619.467 552.933 617.6 558.267L616.267 562L614.8 558.267C612.667 552.933 610.667 553.867 610.8 560.267Z" fill="#E53935"/>
</svg>
